<?xml version="1.0" ?>

<!-- License: CC Attribution. Made by Lima Studio: https://dribbble.com/limastd -->
<svg width="800px" height="800px" viewBox="0 0 64 64" xmlns="http://www.w3.org/2000/svg">

<g id="a"/>

<g id="b"/>

<g id="c"/>

<g id="d"/>

<g id="e"/>

<g id="f"/>

<g id="g"/>

<g id="h"/>

<g id="i"/>

<g id="j"/>

<g id="k"/>

<g id="l"/>

<g id="m"/>

<g id="n"/>

<g id="o"/>

<g id="p"/>

<g id="q"/>

<g id="r"/>

<g id="s"/>

<g id="t"/>

<g id="u"/>

<g id="v"/>

<g id="w"/>

<g id="x"/>

<g id="y"/>

<g id="a`"/>

<g id="aa"/>

<g id="ab"/>

<g id="ac"/>

<g id="ad"/>

<g id="ae"/>

<g id="af"/>

<g id="ag"/>

<g id="ah"/>

<g id="ai"/>

<g id="aj"/>

<g id="ak"/>

<g id="al"/>

<g id="am"/>

<g id="an">

<path d="M59,17.07v-4.46c0-1.73-1.94-2.75-3.68-1.55-1.73,1.2-4.42,1.2-6.45-.21-2.03-1.41-4.72-1.41-6.75,0-2.03,1.41-4.72,1.41-6.75,0-1.02-.7-2.2-1.06-3.38-1.06s-2.36,.35-3.38,1.06c-2.03,1.41-4.72,1.41-6.75,0-1.02-.7-2.2-1.05-3.38-1.05s-2.36,.35-3.38,1.05c-2.03,1.41-4.72,1.41-6.45,.21-1.73-1.2-3.68-.18-3.68,1.55v4.46H59Z" fill="#0acffb" fill-rule="evenodd"/>

<path d="M59,28.76v-11.68c0-1.73-1.94-2.75-3.68-1.55-1.73,1.2-4.42,1.2-6.45-.21-2.03-1.41-4.72-1.41-6.75,0-2.03,1.41-4.72,1.41-6.75,0-1.02-.7-2.2-1.06-3.38-1.06s-2.36,.35-3.38,1.06c-2.03,1.41-4.72,1.41-6.75,0-1.02-.7-2.2-1.05-3.38-1.05s-2.36,.35-3.38,1.05c-2.03,1.41-4.72,1.41-6.45,.21-1.73-1.2-3.68-.18-3.68,1.55v14.25l10.2,18.12,36.57-.15,7.23-20.55Z" fill="#62d9fa" fill-rule="evenodd"/>

<path d="M19.76,40.03l.75-1.74c.47-1.08,1.56-1.65,2.68-1.64,.51,0,1.03,.13,1.5,.38,1.51,.81,2.19,2.74,1.26,4.18l-.63,.97s-1.57,3.8-3.08,3.18c-1.51-.63-3.21-3.89-2.48-5.32Z" fill="#d6b1ed" fill-rule="evenodd"/>

<path d="M20.9,42.66l-3.19-7.39c-.8-1.84-3.14-2.43-4.9-1.48-.11,.06-.22,.13-.32,.2l-2.15,4.08,3.26,8.21s8.75,.42,7.31-3.61Z" fill="#e5c9f3" fill-rule="evenodd"/>

<path d="M48.22,43.68c-4.03-1.05-9.34-1.75-16.22-1.75-7.49,0-13.13,.84-17.27,2.04l-4.21,5.54,4.21,4.69h31.16l7.59-4.78-5.26-5.74Z" fill="#feccba" fill-rule="evenodd"/>

<path d="M49.27,43.55l-3.31,.43c-.99,.13-1.83,.8-2.18,1.74,0,0-.3,.76-.42,2.55-.11,1.55,0,3.27,0,3.27,0,1.48,1.2,2.68,2.68,2.68h3.23v-10.65Z" fill="#f0f4f6" fill-rule="evenodd"/>

<path d="M46.61,29.9c0,.99-.81,1.8-1.8,1.8s-1.8-.81-1.8-1.8,.81-1.8,1.8-1.8,1.8,.81,1.8,1.8Z" fill="#00bff8" fill-rule="evenodd"/>

<path d="M19.26,21.42c0,1.61-1.31,2.92-2.92,2.92s-2.92-1.31-2.92-2.92,1.31-2.92,2.92-2.92,2.92,1.31,2.92,2.92Z" fill="#00bff8" fill-rule="evenodd"/>

<path d="M36.63,24.44c-.53-.17-1.09-.27-1.67-.27h0c-2.14,0-5.63,1.28-7.33,3.11v4.33c1.7,1.84,5.18,3.11,7.33,3.11,.58,0,1.15-.1,1.67-.27v-10.02Z" fill="#feb87e" fill-rule="evenodd"/>

<path d="M51.52,21.64c0,1.61-1.31,2.92-2.92,2.92s-2.92-1.31-2.92-2.92,1.31-2.92,2.92-2.92,2.92,1.31,2.92,2.92Z" fill="#00bff8" fill-rule="evenodd"/>

<path d="M49.27,54.2v-14.5c0-1.79,.35-3.57,1.02-5.24l2.32-5.73c.37-.9,1.04-1.64,1.91-2.09l.54-.28c1.8-.93,3.94,.38,3.94,2.4v22.33c0,1.72-1.4,3.12-3.12,3.12h-6.61Z" fill="#f0f4f6" fill-rule="evenodd"/>

<path d="M14.73,54.2v-11.93c0-1.8-.35-3.57-1.02-5.24l-2.32-5.73c-.37-.9-1.04-1.65-1.91-2.09l-.54-.28c-1.8-.93-3.94,.38-3.94,2.4v19.76c0,1.72,1.4,3.12,3.12,3.12h6.61Z" fill="#f0f4f6" fill-rule="evenodd"/>

<path d="M27.64,27.29c-.98-.53-2.14-.86-2.97-.86-1.67,0-3.03,1.36-3.03,3.03s1.36,3.03,3.03,3.03c.82,0,1.99-.33,2.97-.86v-4.33Z" fill="#fce87b" fill-rule="evenodd"/>

<path d="M27.64,27.29c-.61,.66-.99,1.39-.99,2.17s.38,1.51,.99,2.17c1.01-.55,1.81-1.32,1.81-2.17s-.8-1.62-1.8-2.17Z" fill="#fdda5c" fill-rule="evenodd"/>

<path d="M53.48,35.98c-.55,0-1,.45-1,1v2.53c0,.55,.45,1,1,1s1-.45,1-1v-2.53c0-.55-.45-1-1-1Z" fill="#e2eef2" fill-rule="evenodd"/>

<path d="M53.48,43.64c-.55,0-1,.45-1,1v9.56c0,.55,.45,1,1,1s1-.45,1-1v-9.56c0-.55-.45-1-1-1Z" fill="#e2eef2" fill-rule="evenodd"/>

<path d="M10.52,38.55c-.55,0-1,.45-1,1v2.53c0,.55,.45,1,1,1s1-.45,1-1v-2.53c0-.55-.45-1-1-1Z" fill="#e2eef2" fill-rule="evenodd"/>

<path d="M10.52,48.51c-.55,0-1,.45-1,1v4.69c0,.55,.45,1,1,1s1-.45,1-1v-4.69c0-.55-.45-1-1-1Z" fill="#e2eef2" fill-rule="evenodd"/>

<path d="M36.63,24.44c-2.09,.7-3.6,2.68-3.6,5.01s1.51,4.31,3.6,5.01c2.1-.7,3.61-2.68,3.61-5.01s-1.51-4.31-3.61-5.01Z" fill="#fce87b" fill-rule="evenodd"/>

</g>

<g id="ao"/>

<g id="ap"/>

<g id="aq"/>

<g id="ar"/>

<g id="as"/>

<g id="at"/>

<g id="au"/>

<g id="av"/>

<g id="aw"/>

<g id="ax"/>

</svg>
